<svg width="27" height="27" viewBox="0 0 27 27" fill="none" xmlns="http://www.w3.org/2000/svg">
<path d="M0 13.293C0 16.9708 2.96879 19.9396 6.64653 19.9396C4.81505 19.9396 3.32327 18.4478 3.32327 16.6163C3.32327 14.7848 4.81505 13.293 6.64653 13.293V6.64648C2.96879 6.64648 0 9.61527 0 13.293Z" fill="#B4A996"/>
<path d="M13.293 0C9.61527 0 6.64648 2.96879 6.64648 6.64653C6.64648 4.81505 8.13826 3.32327 9.96975 3.32327C11.8012 3.32327 13.293 4.81505 13.293 6.64653H19.9396C19.9396 2.96879 16.9708 0 13.293 0Z" fill="#B4A996"/>
<path d="M26.6465 13.6465C26.6465 9.96879 23.6777 7 20 7C21.8315 7 23.3233 8.49178 23.3233 10.3233C23.3233 12.1548 21.8315 13.6465 20 13.6465V20.2931C23.6777 20.2931 26.6465 17.3095 26.6465 13.6465Z" fill="#B4A996"/>
<path d="M13.293 26.5862C16.9708 26.5862 19.9396 23.6174 19.9396 19.9397C19.9396 21.7712 18.4478 23.263 16.6163 23.263C14.7848 23.263 13.293 21.7712 13.293 19.9397H6.64648C6.64648 23.6027 9.61527 26.5862 13.293 26.5862Z" fill="#B4A996"/>
<circle cx="13" cy="13" r="3" fill="#B4A996"/>
</svg>
